<svg fill-rule="evenodd" height="16" viewBox="0 0 16 16" width="16"><path d="m8 .25a.75.75 0 0 1 .673.418l1.882 3.815 4.21.612a.75.75 0 0 1 .416 1.279l-3.046 2.97.719 4.192a.75.75 0 0 1 -1.088.791l-3.766-1.98-3.766 1.98a.75.75 0 0 1 -1.088-.79l.72-4.194-3.048-2.969a.75.75 0 0 1 .416-1.28l4.21-.611 1.883-3.815a.75.75 0 0 1 .673-.418zm0 2.445-1.385 2.805a.75.75 0 0 1 -.564.41l-3.097.45 2.24 2.184a.75.75 0 0 1 .216.664l-.528 3.084 2.769-1.456a.75.75 0 0 1 .698 0l2.77 1.456-.53-3.084a.75.75 0 0 1 .216-.664l2.24-2.183-3.096-.45a.75.75 0 0 1 -.564-.41l-1.385-2.807z" fill-rule="evenodd"/></svg>